<?xml version="1.0" encoding="UTF-8" standalone="no"?>
<!DOCTYPE svg PUBLIC "-//W3C//DTD SVG 1.1//EN" "http://www.w3.org/Graphics/SVG/1.1/DTD/svg11.dtd">
<!-- Created with Vectornator (http://vectornator.io/) -->
<svg height="100%" stroke-miterlimit="10" style="fill-rule:nonzero;clip-rule:evenodd;stroke-linecap:round;stroke-linejoin:round;" version="1.1" viewBox="0 0 750 750" width="100%" xml:space="preserve" xmlns="http://www.w3.org/2000/svg" xmlns:vectornator="http://vectornator.io" xmlns:xlink="http://www.w3.org/1999/xlink">
<defs/>
<g id="Ohne-Titel" vectornator:layerName="Ohne Titel">
<g opacity="1" vectornator:layerName="path">
<clipPath clip-rule="nonzero" id="ClipPath">
<path d="M0 0L750 0L750 750L0 750L0 0Z"/>
</clipPath>
<g clip-path="url(#ClipPath)">
<path d="M344.124 6.80908C349.79 8.41608 355.699 8.92608 361.325 10.7511C379.948 16.7911 395.125 27.5851 406.633 43.4481C407.868 45.1521 409.178 46.0951 411.388 46.4171C440.109 50.6051 467.349 59.3111 492.337 74.2401C543.393 104.743 576.26 148.449 587.983 207.28C588.636 210.557 589.456 213.898 589.401 217.196C589.298 223.398 591.949 227.994 595.632 232.827C612.177 254.541 616.622 279.22 611.549 305.663C605.285 338.309 587.366 363.822 561.933 384.483C554.317 390.671 546.158 396.097 537.445 400.615C534.731 402.023 534.897 402.931 536.797 405.06C543.655 412.752 549.704 421.072 554.938 429.96C555.923 431.632 556.993 432.851 559.066 433.281C571.823 435.923 581.383 443.159 587.969 454.241C589.795 457.313 590.8 457.796 593.796 455.321C603.467 447.338 614.381 441.891 627.255 441.802C649.972 441.643 670.044 458.739 674.467 481.6C677.547 497.52 675.347 513.048 670.437 528.128C658.872 563.648 640.356 595.151 614.11 621.884C606.069 630.074 596.883 636.826 586.001 640.928C568.492 647.527 552.374 642.244 542.53 626.383C540.601 623.272 539.78 623.511 537.499 625.935C517.996 646.668 493.844 659.865 467.147 668.827C462.336 670.442 457.47 671.942 452.545 673.149C450.103 673.748 448.761 674.961 447.7 677.153C439.822 693.442 430.145 708.513 417.031 721.144C406.033 731.739 393.601 740.074 378.207 742.408C354.795 745.957 336.269 737.385 323.313 717.798C319.87 712.593 316.631 710.946 310.481 711.119C272.909 712.174 238.521 701.966 207.643 680.423C196.482 672.637 186.75 663.297 179.073 651.992C177.315 649.402 175.212 647.769 172.317 646.6C144.39 635.319 119.903 619.117 100.859 595.468C88.526 580.152 78.895 563.386 75.2 543.741C73.717 535.858 73.652 527.973 75.631 520.147C80.546 500.717 97.196 491.395 115.881 498.624C122.604 501.226 128.046 502.743 134.443 498.394C137.552 496.281 141.748 496.17 145.614 496.031C147.381 495.968 148.031 495.594 147.322 493.6C141.058 476.002 144.135 460.485 157.849 447.413C158.012 447.258 158.054 446.975 158.294 446.431C152.445 443.754 146.987 440.413 142.153 436.087C118.602 415.016 114.87 377.996 133.964 352.787C136.045 350.039 135.35 349.324 132.717 347.857C110.687 335.58 98.532 316.398 94.919 291.809C91.468 268.321 97.113 247.03 112.262 228.549C119.374 219.872 128.139 213.243 138.666 209.226C141.591 208.109 141.42 207.141 139.971 204.818C106.009 150.402 139.949 78.0641 203.467 69.4591C218.105 67.4761 232.395 69.1221 246.194 74.4281C248.498 75.3131 249.249 75.0721 249.924 72.5501C259.569 36.4981 287.721 12.0451 324.652 7.47508C325.252 7.40108 325.905 7.45008 326.272 6.80908L344.124 6.80908Z" fill="#181818" fill-rule="nonzero" opacity="1" stroke="none" vectornator:layerName="path"/>
<path d="M641.088 270.599C637.83 258.903 634.584 247.493 631.513 236.035C630.833 233.499 629.571 232.007 627.115 231.078C621.56 228.979 616.087 226.66 610.598 224.388C609.732 224.029 608.396 223.891 608.388 222.724C608.379 221.529 609.73 221.433 610.6 221.073C615.859 218.895 621.076 216.597 626.427 214.67C629.471 213.574 630.944 211.646 631.738 208.638C634.424 198.467 637.271 188.338 640.062 178.195C640.352 177.143 640.389 175.975 641.841 174.764C643.302 179.942 644.695 184.85 646.071 189.763C648.006 196.674 649.976 203.576 651.823 210.511C652.328 212.406 653.429 213.401 655.184 214.083C661.066 216.373 666.912 218.755 672.76 221.133C673.629 221.486 674.972 221.599 674.891 222.834C674.829 223.776 673.627 223.869 672.841 224.182C667.67 226.252 662.57 228.538 657.294 230.296C653.518 231.554 651.838 233.98 650.891 237.635C648.25 247.815 645.371 257.933 642.572 268.072C642.351 268.873 642.392 269.82 641.088 270.599" fill="#00ffef" fill-rule="nonzero" opacity="1" stroke="none" vectornator:layerName="path"/>
<path d="M389.484 726.065C367.781 737.312 343.901 729.909 331.069 707.987C326.331 699.891 323.204 691.178 320.88 682.135C319.4 676.374 316.657 673.973 312.831 674.981C308.919 676.011 307.688 679.349 309.25 685.115C310.287 688.94 311.39 692.755 312.67 696.504C313.339 698.465 313.387 699.373 310.866 699.419C271.063 700.137 235.402 688.813 204.744 662.973C199.037 658.164 193.646 652.851 189.888 646.439C186.213 640.169 180.512 637.127 174.411 634.514C154.399 625.943 135.962 614.945 120.558 599.412C104.521 583.239 91.9594 564.897 87.1204 542.157C85.6074 535.047 85.4934 527.878 87.9254 520.878C91.6024 510.294 99.7834 506.072 110.509 509.294C112.749 509.967 114.859 511.069 117.031 511.967C118.346 512.511 118.848 513.428 118.713 514.888C118.111 521.376 121.103 526.334 126.191 529.742C136.214 536.455 146.837 542.055 158.905 544.183C161.067 544.564 161.281 545.169 160.419 547.025C157.911 552.419 155.811 557.98 154.107 563.683C152.861 567.849 154.257 571.133 157.664 572.167C161.125 573.215 164.181 571.45 165.508 567.274C170.086 552.872 176.776 539.53 185.378 527.129C186.657 525.285 186.989 523.355 186.59 521.142C183.007 501.234 183.208 481.179 184.472 461.102C185.717 441.314 182.571 422.21 177.078 403.201C172.698 388.04 165.531 374.067 160.299 359.29C150.693 332.157 147.052 304.316 148.151 275.639C149.276 246.264 154.788 217.907 166.202 190.765C181.401 154.622 204.802 124.863 236.203 101.455C267.409 78.1914 302.427 63.8304 340.923 58.4834C392.518 51.3184 441.924 58.2764 487.153 85.1974C535.934 114.233 566.768 156.46 576.736 212.979C577.616 217.968 577.943 223.062 578.369 228.12C578.545 230.208 579.233 231.935 580.613 233.464C603.92 259.285 606.296 288.756 595.067 320.184C584.655 349.326 564.563 370.521 538.365 386.221C516.685 399.214 493.15 406.891 468.083 409.941C467.59 410.002 467.098 410.061 466.61 410.144C462.477 410.852 460.154 413.351 460.484 416.725C460.83 420.255 463.894 422.47 468.047 422.043C476.565 421.165 484.985 419.707 493.296 417.624C502.445 415.331 511.457 412.598 520.115 408.837C522.179 407.94 523.406 408.27 524.916 409.876C554.771 441.614 569.79 478.994 567.076 522.756C565.357 550.463 558.307 576.739 542.916 600.287C526.739 625.039 503.912 641.419 476.928 652.532C470.083 655.351 463.108 657.795 455.883 659.82C455.517 658.029 456.45 656.766 456.927 655.42C466.4 628.707 472.315 601.333 472.15 572.852C472.081 561.01 470.496 549.363 466.693 538.105C457.23 510.086 433.35 494.328 402.939 495.994C382.151 497.132 364.785 505.902 350.068 520.205C347.553 522.649 345.993 522.769 342.979 521.047C327.251 512.061 310.741 510.391 293.641 516.819C291.692 517.552 289.831 518.637 288.1 519.81C284.976 521.926 284.21 525.374 286.031 528.19C287.806 530.935 291.024 531.742 294.204 529.979C307.804 522.437 321.354 523.932 334.858 530.147C339.111 532.104 339.044 532.218 336.212 536.12C330.584 543.872 325.974 552.214 321.994 560.91C320.15 564.941 321.074 568.295 324.302 569.84C327.684 571.46 330.941 570.048 332.895 565.849C340.14 550.286 349.324 536.132 362.621 525.003C376.021 513.787 391.232 507.359 408.994 508.086C433.828 509.103 450.341 522.404 456.618 546.437C460.359 560.761 460.855 575.313 459.433 589.98C456.479 590.027 456.931 587.669 456.946 586.04C456.983 581.773 456.203 577.699 455.042 573.617C451.38 560.737 439.694 556.729 429.631 557.984C417.398 559.51 408.608 566.978 401.04 575.888C387.443 591.893 379.392 610.618 374.775 630.996C370.927 647.973 368.708 665.115 369.083 682.515C369.276 691.451 370.627 700.276 374.146 708.621C376.786 714.88 380.644 719.988 387.225 722.578C388.732 723.17 390.345 723.86 389.484 726.065" fill="#fdfdfd" fill-rule="nonzero" opacity="1" stroke="none" vectornator:layerName="path"/>
<path d="M389.484 726.065C389.021 725.667 388.621 725.067 388.085 724.899C377.774 721.659 373.217 713.43 370.456 703.991C366.869 691.726 366.673 679.151 367.618 666.459C368.772 650.979 370.929 635.667 375.387 620.814C381.07 601.877 389.638 584.377 403.799 570.17C410.696 563.253 418.44 557.571 428.55 556.169C440.154 554.562 453.322 559.221 457.139 573.925C458.11 577.665 458.914 581.372 458.761 585.258C458.698 586.853 458.611 588.493 459.433 589.98C458.668 602.494 456.233 614.732 453.151 626.841C447.223 650.127 438.624 672.295 425.188 692.381C416.281 705.697 405.709 717.323 391.505 725.211C390.87 725.564 390.16 725.783 389.484 726.065" fill="#00ffef" fill-rule="nonzero" opacity="1" stroke="none" vectornator:layerName="path"/>
<path d="M582.829 629.213C565.186 636.86 554.801 626.077 549.576 614.507C548.837 612.868 549.387 611.748 550.275 610.451C571.489 579.482 580.009 544.928 579.053 507.758C578.872 500.699 577.965 493.68 576.594 486.737C576.253 485.01 575.784 483.532 578.687 484.253C581.766 485.016 583.72 482.988 585.505 480.742C592.182 472.347 599.715 464.93 609.02 459.359C634.683 443.997 662.829 463.78 663.333 490.14C664.138 494.761 663.501 498.572 659.744 502.226C653.548 508.251 650.24 516.364 646.299 523.928C639.489 536.996 633.643 550.545 626.525 563.471C618.096 578.78 609.312 593.852 598.76 607.818C593.399 614.913 588.606 622.43 582.829 629.213" fill="#fefefe" fill-rule="nonzero" opacity="1" stroke="none" vectornator:layerName="path"/>
<path d="M238.487 84.9292C196.981 113.197 167.56 150.623 150.425 197.65C133.601 181.457 135.344 137.191 153.591 112.119C176.163 81.1062 214.432 75.5202 238.487 84.9292" fill="#00ffef" fill-rule="nonzero" opacity="1" stroke="none" vectornator:layerName="path"/>
<path d="M263.54 70.3569C267.778 51.8199 287.877 27.2669 318.599 20.5219C347.937 14.0809 377.535 26.7999 391.459 44.3139C346.549 42.0439 304.09 50.1339 263.54 70.3569" fill="#00ffef" fill-rule="nonzero" opacity="1" stroke="none" vectornator:layerName="path"/>
<path d="M105.846 279.683C107.022 255.155 116.124 235.1 138.345 222.465C138.775 222.22 139.208 221.973 139.66 221.773C140.663 221.332 141.803 220.333 142.75 221.007C143.797 221.752 142.965 223.061 142.725 224.113C135.533 255.721 134.107 287.618 138.093 319.756C138.746 325.03 140.014 330.225 140.921 335.47C141.073 336.346 141.888 337.506 140.76 338.153C139.969 338.606 139.131 337.799 138.39 337.393C122.568 328.741 113.072 315.206 108.289 298.117C106.613 292.13 105.827 285.987 105.846 279.683" fill="#00ffef" fill-rule="nonzero" opacity="1" stroke="none" vectornator:layerName="path"/>
<path d="M582.829 629.213C583.127 625.822 585.058 623.182 587.031 620.662C606.036 596.391 621.893 570.178 635.213 542.421C640.087 532.263 644.913 522.086 650.404 512.246C653.359 506.952 656.429 501.705 661.564 498.086C664.51 496.011 662.475 492.733 663.333 490.141C664.825 497.234 663.434 504.221 662.102 511.094C657.169 536.551 645.675 559.239 631.776 580.808C621.875 596.172 610.743 610.536 596.008 621.698C591.951 624.772 587.664 627.484 582.829 629.213" fill="#00ffef" fill-rule="nonzero" opacity="1" stroke="none" vectornator:layerName="path"/>
<path d="M133.723 388.808C133.873 379.545 136.523 370.032 142.345 361.49C144.542 358.267 144.848 358.272 146.498 361.641C156.578 382.224 165.943 403.079 170.398 425.756C170.946 428.542 171.312 431.368 171.672 434.187C172.159 437.994 171.887 438.211 168.071 437.115C158.745 434.435 151.055 429.254 144.969 421.732C137.6 412.625 133.749 401.559 133.723 388.808" fill="#00ffef" fill-rule="nonzero" opacity="1" stroke="none" vectornator:layerName="path"/>
<path d="M171.735 476.338C171.64 483.876 171.366 491.414 172.052 498.946C172.145 499.966 172.702 501.356 171.512 501.992C170.436 502.57 169.403 501.623 168.462 501.102C156.402 494.417 152.391 475.175 160.405 462.732C162.797 459.016 165.748 455.975 169.745 453.969C172.081 452.798 172.755 453.438 172.712 455.961C172.597 462.751 172.672 469.545 172.672 476.337C172.36 476.337 172.047 476.338 171.735 476.338" fill="#00ffef" fill-rule="nonzero" opacity="1" stroke="none" vectornator:layerName="path"/>
<path d="M146.307 508.034C156.326 507.847 163.79 514.022 165.361 523.327C166.578 530.533 162.86 533.873 156.027 531.361C148.378 528.549 140.849 525.36 134.084 520.726C129.416 517.529 129.614 514.427 134.522 511.431C138.291 509.132 142.434 508.011 146.307 508.034" fill="#00ffef" fill-rule="nonzero" opacity="1" stroke="none" vectornator:layerName="path"/>
<path d="M574.144 475.196C571.613 465.906 568.54 457.226 564.604 448.116C569.973 450.235 572.993 453.915 575.888 457.69C582.344 466.108 582.238 467.17 574.144 475.196" fill="#fafafa" fill-rule="nonzero" opacity="1" stroke="none" vectornator:layerName="path"/>
<path d="M350.849 489.291C343.708 489.214 336.79 487.829 330.135 485.346C327.647 484.417 325.787 484.691 323.612 486.124C317.459 490.175 310.762 493.069 303.539 494.647C299.15 495.606 295.832 493.857 295.089 490.261C294.377 486.808 296.482 484.001 300.804 482.985C307.907 481.316 314.471 478.41 320.241 474.015C323.754 471.338 326.992 471.184 330.932 472.822C338.318 475.894 346.014 477.688 354.115 477.097C369.067 476.004 379.765 463.166 378.116 448.279C377.342 441.305 379.147 439.231 386.097 439.103C391.824 438.997 397.501 438.527 402.856 436.285C406.122 434.917 408.721 432.959 408.329 428.84C407.958 424.937 404.949 423.99 401.91 423.13C398.299 422.106 394.571 422.018 390.854 421.922C381.563 421.683 372.27 421.509 362.98 421.227C357.068 421.047 354.933 418.377 355.974 412.626C356.619 409.067 357.007 405.502 356.323 401.916C355.859 399.478 354.745 397.487 352.156 396.695C349.505 395.886 347.604 397.12 345.917 398.944C342.555 402.577 340.583 406.989 339.119 411.615C338.199 414.521 336.715 416.536 333.754 417.742C328.99 419.683 326.195 423.732 324.387 428.309C322.983 431.859 320.537 433.57 316.987 434.231C307.135 436.068 297.249 435.676 287.353 434.752C286.101 434.636 284.956 434.137 283.943 433.378C278.674 429.43 273.616 425.25 269.605 419.965C266.943 416.458 267.087 413.001 269.897 410.754C272.693 408.52 276.342 409.027 278.91 412.52C284.851 420.604 292.307 425.103 302.665 423.506C303.392 423.394 304.154 423.423 304.892 423.476C310.315 423.861 314.747 422.798 317.045 416.956C318.112 414.243 320.402 411.902 322.966 410.416C326.844 408.168 328.905 404.841 330.563 400.856C332.627 395.898 335.662 391.491 340.011 388.176C349.672 380.808 362.953 384.729 367.118 396.158C368.233 399.22 368.904 402.427 368.633 405.642C368.358 408.916 369.754 409.553 372.658 409.559C380.09 409.575 387.527 409.791 394.954 410.09C400.555 410.315 406.067 411.133 411.092 413.895C422.544 420.191 423.798 435.79 413.465 443.83C407.776 448.255 401.059 449.932 394.067 450.558C391.405 450.797 390.348 451.551 390.049 454.472C387.903 475.513 372.008 489.517 350.849 489.291" fill="#181818" fill-rule="nonzero" opacity="1" stroke="none" vectornator:layerName="path"/>
<path d="M438.378 352.474C416.946 352.829 399.034 351.057 381.652 345.304C373.008 342.444 364.903 338.521 357.507 333.193C353.712 330.459 352.817 327.08 354.968 324.026C357.117 320.974 360.612 320.706 364.441 323.403C379.189 333.791 396.024 338.22 413.607 339.63C453.359 342.817 491.337 335.713 527.241 318.26C539.349 312.374 550.414 304.872 559.225 294.474C563.922 288.932 567.54 282.784 569.11 275.583C569.216 275.101 569.378 274.629 569.542 274.162C570.784 270.639 573.774 268.977 577.087 269.96C580.168 270.875 581.773 273.766 581.023 277.326C578.108 291.171 570.018 301.795 559.711 310.915C545.198 323.758 528.16 332.162 510.061 338.627C485.833 347.28 460.837 351.781 438.378 352.474" fill="#181818" fill-rule="nonzero" opacity="1" stroke="none" vectornator:layerName="path"/>
<path d="M372.461 271.715C372.419 257.513 383.278 246.153 396.92 246.127C410.782 246.101 422.027 257.63 422.151 271.994C422.275 286.311 411.302 297.789 397.488 297.793C383.747 297.797 372.504 286.081 372.461 271.715" fill="#181818" fill-rule="nonzero" opacity="1" stroke="none" vectornator:layerName="path"/>
<path d="M555.913 244.599C555.814 250.461 554.384 255.485 551.111 259.943C545.203 267.991 535.232 269.507 527.238 263.533C516.408 255.439 513.672 238.175 521.468 227.13C528.01 217.863 539.72 216.828 547.798 224.872C553.352 230.403 555.797 237.243 555.913 244.599" fill="#181818" fill-rule="nonzero" opacity="1" stroke="none" vectornator:layerName="path"/>
</g>
</g>
</g>
</svg>
