<?xml version="1.0" encoding="UTF-8" standalone="no"?>
<!DOCTYPE svg PUBLIC "-//W3C//DTD SVG 1.1//EN" "http://www.w3.org/Graphics/SVG/1.1/DTD/svg11.dtd">
<!-- Created with Vectornator (http://vectornator.io/) -->
<svg height="100%" stroke-miterlimit="10" style="fill-rule:nonzero;clip-rule:evenodd;stroke-linecap:round;stroke-linejoin:round;" version="1.1" viewBox="0 0 975 713" width="100%" xml:space="preserve" xmlns="http://www.w3.org/2000/svg" xmlns:vectornator="http://vectornator.io" xmlns:xlink="http://www.w3.org/1999/xlink">
<defs/>
<clipPath id="ArtboardFrame">
<rect height="713" width="975" x="0" y="0"/>
</clipPath>
<g clip-path="url(#ArtboardFrame)" id="Ebene-1" vectornator:layerName="Ebene 1">
<g opacity="1">
<path d="M4.66335 2.10911C4.66335 358.212 4.66335 358.212 4.66335 714.316C491.925 714.316 491.925 714.316 979.187 714.316C979.187 358.212 979.187 358.212 979.187 2.10911C491.925 2.10911 491.925 2.10911 4.66335 2.10911Z" fill="#f9f2f2" fill-opacity="0" fill-rule="nonzero" opacity="1" stroke="none"/>
<path d="M645.015 160.102C649.067 164.154 671.28 159.204 678.34 163.911C677.864 164.387 677.864 164.387 677.388 164.863C679.784 167.259 684.09 165.028 686.909 167.243C691.129 170.559 697.925 176.756 699.287 181.525C699.85 183.495 704.579 185.144 705.476 187.238C707.025 190.853 712.417 195.355 713.093 200.092C713.743 204.641 711.651 205.483 715.474 206.757C715.474 228.637 716.438 249.296 715.95 271.504C715.939 272.009 714.526 274.355 714.046 274.836C713.57 274.36 713.57 274.36 713.093 273.884C711.058 275.919 711.867 288.326 711.665 290.546C711.436 293.073 708.694 294.165 707.857 296.259C706.21 300.376 703.395 315.044 699.763 316.255C699.763 321.052 695.513 322.172 695.003 326.252C693.731 336.426 681.032 348.481 676.436 357.673C675.074 360.397 671.426 361.753 670.247 365.29C668.789 369.664 656.914 374.331 659.297 379.096C657.2 381.193 654.399 381.935 652.156 383.857C648.014 387.407 644.545 394.063 639.778 396.711C637.494 397.98 633.804 399.352 631.685 401.472C631.923 401.948 631.923 401.948 632.161 402.424C628.175 406.409 625.615 403.971 622.639 400.996C622.163 401.234 622.163 401.234 621.687 401.472C619.998 399.783 619.241 398.55 617.403 396.711C619.935 391.646 611.756 387.051 609.309 383.381C608.833 383.619 608.833 383.619 608.357 383.857C605.341 380.841 601.968 373.107 596.455 378.62C597.471 380.144 597.322 380.743 597.884 382.429C599.857 382.429 602.943 388.44 604.549 390.046C605.025 389.808 605.025 389.808 605.501 389.57C606.066 390.136 609.795 398.716 606.453 396.711C601.608 393.804 598.868 387.698 595.027 383.857C588.299 377.129 581.171 370.828 573.128 368.147C573.128 366.746 573.352 367.419 572.176 366.242C571.858 366.56 571.232 366.746 571.223 367.194C570.912 383.854 571.834 400.531 571.223 417.182C571.174 418.534 567.056 420.904 566.463 421.943C564.801 424.852 562.711 428.507 558.369 428.608C552.18 428.752 545.977 428.632 539.802 429.084C537.07 429.284 537.8 434.499 538.374 437.177C538.515 437.836 539.129 438.597 539.802 438.606C575.029 439.075 610.263 438.92 645.491 438.606C654.73 438.523 675.151 437.522 685.005 436.701C688.814 436.384 693.728 438.452 696.431 435.749C695.955 435.273 695.955 435.273 695.479 434.797C697.888 432.388 702.813 433.835 705.952 432.893C708.389 432.162 711.561 429.022 714.046 428.608C715.796 428.316 718.028 428.91 719.282 427.656C718.806 427.18 718.806 427.18 718.33 426.704C718.624 426.41 735.206 420.186 735.945 420.039C739.358 419.356 740.429 414.67 743.086 412.422C746.808 409.273 743.015 412.238 747.371 410.993C749.339 410.431 748.947 406.415 750.703 405.756C754.193 404.448 757.427 401.413 760.701 398.139C762.679 396.161 759.14 397.32 763.081 393.379C766.518 389.942 771.986 384.364 773.555 380.048C774.633 377.082 773.876 373.752 777.84 372.431C777.84 369.72 778.108 369.009 780.696 368.147C780.696 364.683 783.567 350.517 784.505 349.58C785.219 350.056 785.219 350.056 785.933 350.532C789.316 347.149 787.284 341.033 787.361 336.25C787.451 330.694 787.687 325.141 787.837 319.587C788.154 307.848 787.837 296.101 787.837 284.358C787.837 276.525 783.925 277.263 783.076 272.456C782.69 270.268 783.352 267.995 783.076 265.791C782.939 264.694 780.437 264.593 779.744 264.362C779.744 254.997 775.477 248.679 770.698 241.511C770.222 241.749 770.222 241.749 769.746 241.987C767.589 239.83 769.298 235.699 766.89 233.894C765.752 233.04 758.029 229.736 757.844 233.418C757.226 245.78 758.303 258.182 757.844 270.551C757.748 273.146 754.932 278.084 754.036 280.549C753.062 283.226 754.111 287.244 753.084 290.07C750.997 295.81 749.195 300.666 747.847 306.733C747.64 307.662 745.05 309.989 744.99 310.542C744.047 319.268 744.859 325.824 743.086 332.917C741.408 339.63 746.328 353.26 737.373 356.245C737.373 366.668 733.238 371.865 728.328 380.048C726.988 382.281 727.588 384.738 724.519 385.761C724.519 392.915 714.737 397.264 709.761 400.996C707.178 402.933 704.851 407.929 702.144 409.089C698.144 410.803 695.178 413.002 691.194 415.278C686.082 418.199 679.358 416.64 675.008 420.991C670.556 418.765 655.993 420.011 654.06 421.943C654.774 422.657 654.774 422.657 655.488 423.371C653.532 425.328 644.854 424.577 642.634 424.799C632.549 425.808 621.365 422.926 611.69 420.991C609.307 420.514 610.261 412.278 610.261 411.469C610.261 407.173 608.176 401.653 611.214 398.615C614.96 401.113 614.659 405.87 617.403 408.613C617.879 408.137 617.879 408.137 618.355 407.661C618.831 408.137 618.831 408.137 619.307 408.613C618.932 409.363 616.624 419.029 618.355 419.087C627.554 419.393 636.764 418.933 645.967 419.087C650.39 419.16 655.946 418.153 659.297 414.802C658.821 414.326 658.821 414.326 658.345 413.85C661.424 410.771 664.246 409.833 667.866 407.661C671.386 405.549 674.628 401.114 677.864 399.091C684.071 395.212 688.378 387.625 693.574 382.429C694.716 381.287 696.458 382.374 697.383 380.525C698.608 378.075 698.604 376.447 701.192 373.859C701.566 373.485 704.728 373.356 705.476 372.907C705.861 372.676 706.34 372.395 706.428 371.955C707.246 367.866 709.883 366.354 711.189 362.434C712.41 358.77 725.367 349.848 723.091 345.295C723.87 344.516 727.667 340.592 728.328 339.106C728.996 337.603 728.073 335.42 729.28 333.869C730.528 332.265 733.398 331.989 734.041 330.061C735.78 324.843 738.232 320.773 740.23 315.778C741.296 313.113 739.788 310.508 742.134 308.161C742.61 308.637 742.61 308.637 743.086 309.113C743.45 308.749 746.447 292.933 746.895 290.546C747.163 289.115 750.522 286.623 750.703 285.31C751.245 281.38 750.161 277.338 750.703 273.408C750.906 271.94 753.451 268.54 753.56 266.743C754.365 253.458 754.669 237.277 754.512 224.372C754.462 220.243 754.476 216.1 754.036 211.994C753.873 210.477 751.231 203.001 750.703 202.473C750.227 202.711 750.227 202.711 749.751 202.949C747.615 200.812 749.187 197.148 746.895 194.856C746.419 195.332 746.419 195.332 745.943 195.808C743.174 193.04 742.421 188.183 740.23 185.334C734.175 177.462 730.341 174.616 723.567 170.1C723.805 169.624 723.805 169.624 724.043 169.148C719.382 164.486 709.921 164.391 707.857 158.198C703.186 158.198 700.895 156.465 697.383 156.294C691.201 155.992 684.978 155.72 678.816 156.294C677.922 156.377 677.808 158.141 676.912 158.198C667.568 158.791 658.185 158.052 648.823 158.198C646.352 158.236 646.541 158.576 645.015 160.102Z" fill="#edb307" fill-rule="nonzero" opacity="1" stroke="none"/>
<path d="M248.445 208.186C263.999 208.186 272.747 209.88 281.294 220.564C281.592 220.935 281.28 221.516 281.294 221.992C281.616 232.617 282.722 238.422 282.722 248.652C282.722 309.431 283.038 370.21 282.722 430.988C282.705 434.319 284.342 442.223 280.818 445.747C280.342 445.271 280.342 445.271 279.866 444.795C277.171 447.489 277.198 457.011 269.868 457.649C266.918 457.905 249.077 457.969 247.493 459.553C248.288 461.142 245.205 467.949 248.921 468.122C277.057 469.431 306.023 467.646 334.138 467.646C340.551 467.646 359.226 470.349 360.322 466.694C365.687 448.813 341.055 466.496 337.471 455.744C335.218 455.744 328.319 451.828 327.473 449.079C326.997 447.532 327.666 445.463 326.521 444.318C325.807 445.033 325.807 445.033 325.093 445.747C324.776 445.429 324.151 445.243 324.141 444.795C323.831 431.151 324.141 417.5 324.141 403.852C324.141 382.905 324.458 361.955 324.141 341.01C324.134 340.562 323.506 340.376 323.189 340.058C323.506 339.582 323.569 338.637 324.141 338.63C362.859 338.158 401.59 339.407 440.303 338.63C440.376 338.629 452.079 326.854 454.109 324.824C460.723 318.21 484.465 300.607 485.53 291.023C486.377 283.398 486.006 273.02 486.006 265.791C486.006 251.826 485.861 237.86 486.006 223.896C486.019 222.617 485.99 221.269 486.482 220.088C487.327 218.059 491.308 216.582 492.671 215.803C494.049 215.016 493.994 212.403 495.528 211.994C497.848 211.375 500.971 212.74 502.669 211.042C502.431 210.566 502.431 210.566 502.193 210.09C503.5 208.783 503.003 209.564 503.621 207.71C511.915 207.71 525.424 210.374 521.712 202.949C519.356 198.238 506.398 201.521 502.193 201.521C497.588 201.521 492.989 201.193 488.386 201.045C471.495 200.5 454.609 201.521 437.923 201.521C429.034 201.521 420.149 201.198 411.262 201.045C406.122 200.956 409.161 206.643 409.834 208.662C414.764 208.662 421.107 206.128 424.592 209.614C424.116 210.09 424.116 210.09 423.64 210.566C425.896 212.821 429.988 211.201 433.162 211.518C437.906 211.993 439.121 217.477 442.207 220.564C442.683 220.326 442.683 220.326 443.159 220.088C445.241 222.169 444.086 220.566 444.112 225.8C444.263 257.38 444.745 288.96 444.588 320.539C444.585 320.988 444.084 321.487 443.635 321.491C414.279 321.805 384.92 321.491 355.562 321.491C345.564 321.491 335.565 321.65 325.569 321.491C325.162 321.485 323.671 320.418 323.665 320.063C323.353 301.181 323.051 282.285 323.665 263.41C323.694 262.513 325.527 262.403 325.569 261.506C326.174 248.507 324.964 235.467 325.569 222.468C325.719 219.248 331.184 216.096 332.234 212.946C339.279 212.946 350.14 211.324 357.466 210.566C360.31 210.272 361.899 200.811 358.418 200.568C326.562 198.346 293.557 200.092 261.775 200.092C253.479 200.092 245.058 198.023 248.445 208.186Z" fill="#edb307" fill-rule="nonzero" opacity="1" stroke="none"/>
<path d="M635.017 400.996C638.212 400.996 641.834 394.229 644.539 392.426C652.8 386.919 658.702 379.692 665.01 373.383C664.772 372.907 664.772 372.907 664.534 372.431C668.775 368.19 671.589 363.471 675.484 359.577C675.96 359.815 675.96 359.815 676.436 360.053C677.885 358.605 676.729 357.283 677.864 355.769C678.487 354.938 679.876 351.765 680.72 351.484C682.064 351.036 682.89 352.25 683.577 350.532C685.185 346.51 688.992 335.556 694.051 333.869C694.051 328.329 698.5 325.177 700.239 320.539C703.858 310.891 708.192 302.141 712.141 292.927C713.117 290.651 711.452 287.903 713.57 285.786C714.046 286.262 714.046 286.262 714.522 286.738C718.034 283.226 714.56 277.088 715.95 272.456C720.1 258.62 717.523 243.564 716.902 229.133C716.74 225.361 712.497 227.602 711.189 227.229C710.962 227.164 703.548 219.063 703.096 217.707C697.71 217.707 697.996 213.453 693.574 212.47C691.204 211.944 689.201 212.282 686.909 211.518C683.828 210.491 681.887 207.02 678.34 206.757C659.873 205.39 642.088 205.503 622.639 206.281C621.036 206.345 609.941 204.888 609.785 209.138C608.182 252.839 609.785 297.915 609.785 341.486C609.785 352.596 610.202 363.738 609.309 374.812C608.994 378.719 604.465 375.652 605.025 379.572C605.879 385.552 612.813 386.429 614.07 389.57C616.046 394.51 617.313 398.526 621.687 402.9C625.328 406.54 633.338 406.034 635.017 400.996Z" fill="#faf4f4" fill-opacity="0.333" fill-rule="nonzero" opacity="1" stroke="none"/>
<path d="M505.049 149.629C507.931 152.511 506.928 151.005 508.382 153.913C507.905 154.389 507.905 154.389 507.429 154.865C512.185 159.621 522.735 161.745 525.52 170.1C531.037 186.65 529.632 202.665 528.377 219.611C528.139 222.822 529.851 238.163 524.092 240.083C524.092 244.137 524.189 248.62 519.807 250.08C519.807 252.456 520.138 254.51 518.379 256.269C517.903 256.031 517.903 256.031 517.427 255.793C514.858 258.362 504.714 280.437 499.336 278.645C497.573 278.057 498.663 275.452 496.48 274.36C491.429 279.41 497.521 289.406 491.243 291.499C491.243 295.671 481.19 305.836 477.913 309.113C466.631 320.395 455.159 330.439 444.588 341.01C441.572 344.026 435.23 347.184 433.638 351.96C427.094 351.96 426.294 359.829 421.736 362.434C414.522 366.556 398.047 384.941 395.552 392.426C394.412 395.845 388.763 398.428 387.459 401.472C386.172 404.474 385.473 412.29 382.222 413.374C382.222 416.764 381.555 421.213 377.937 422.419C377.937 437.735 375.503 453.882 377.461 469.55C377.95 473.46 386.996 481.425 385.554 484.309C388.674 487.429 393.509 490.563 396.504 494.306C398.005 496.182 399.911 494.856 401.741 496.687C401.265 497.163 401.265 497.163 400.789 497.639C402.991 499.841 410.81 499.165 413.643 499.543C436.887 502.642 452.536 500.164 468.391 484.309C465.781 481.699 462.191 483.345 459.346 480.5C457.245 482.601 450.604 481.543 447.444 482.404C437.069 485.234 422.005 483.792 417.451 472.407C416.662 470.433 412.938 469.932 412.215 468.122C410.271 463.262 410.786 454.516 410.786 450.031C410.786 447.352 410.229 443.924 412.215 441.938C412.929 442.652 412.929 442.652 413.643 443.366C415.854 441.155 415.18 432.022 415.547 429.084C415.92 426.102 418.878 424.326 420.308 421.943C421.834 419.4 419.46 416.989 423.164 415.754C423.164 411.881 425.831 413.42 427.449 410.993C429.09 408.531 429.646 403.574 431.258 400.996C434.814 395.306 441.043 391.193 444.588 385.285C454.737 368.369 475.017 352.206 487.434 334.821C489.884 331.392 495.72 330.059 498.384 326.728C501.354 323.016 507.793 314.482 512.19 311.97C517.692 308.826 525.38 322.631 529.805 316.731C531.459 314.525 518.679 305.916 522.188 300.068C523.233 298.325 525.323 297.479 526.948 296.259C528.321 295.23 528.981 292.322 530.281 291.023C534.519 286.784 540.06 282.059 543.611 277.216C546.424 273.381 547.947 268.12 551.704 264.362C551.466 263.886 551.466 263.886 551.228 263.41C553.956 260.683 554.076 256.949 555.989 253.889C556.977 252.308 560.581 249.311 561.226 247.7C562.946 243.399 559.837 239.117 565.51 237.226C565.51 220.19 569.91 201.619 566.463 184.382C564.734 175.736 555.747 169.14 551.704 161.054C550.396 158.437 544.045 160.641 546.944 156.294C545.126 154.476 541.836 154.519 539.802 152.485C540.279 152.009 540.279 152.009 540.755 151.533C536.729 147.507 507.13 147.548 505.049 149.629Z" fill="#edb307" fill-rule="nonzero" opacity="1" stroke="none"/>
<path d="M475.532 348.628C475.056 348.39 475.056 348.39 474.58 348.151C468.435 354.296 462.196 360.957 456.489 367.671C452.269 372.636 448.665 382.815 441.255 385.285C441.255 390.841 433.17 396.858 430.305 400.996C428.684 403.337 428.187 407.506 426.497 410.041C423.217 414.96 418.756 418.682 416.499 424.323C414.713 428.789 416.116 436.133 412.691 439.558C412.215 439.32 412.215 439.32 411.738 439.082C407.252 443.568 409.569 467.381 413.167 470.979C413.643 470.741 413.643 470.741 414.119 470.503C415.15 471.533 424.828 481.684 425.069 482.404C430.594 482.404 453.975 486.824 459.822 480.976C459.584 480.5 459.584 480.5 459.346 480.024C461.091 478.279 462.221 478.539 463.155 475.739C467.21 475.739 466.078 473.665 468.391 471.931C470.467 470.374 473.348 470.861 475.532 469.55C480.762 466.413 484.794 455.961 489.339 450.507C492.333 446.915 493.568 438.904 499.812 440.986C499.812 443.564 499.363 442.441 501.24 444.318C504.482 441.077 505.621 433.019 510.286 431.464C510.286 427.954 511.304 423.191 515.047 421.943C515.047 419.996 516.173 414.628 517.427 413.374C517.903 413.85 517.903 413.85 518.379 414.326C521.293 411.412 518.767 404.992 523.616 403.376C523.616 401.023 523.167 401.921 524.568 400.52C525.282 401.234 525.282 401.234 525.996 401.948C528.475 399.469 526.631 394.965 526.948 391.474C527.155 389.2 531.342 388.192 529.805 382.429C528.927 379.136 525.256 375.376 531.233 373.383C531.233 371.198 532.833 364.47 533.613 362.91C530.68 359.976 527.149 357.262 524.092 354.817C523.566 354.396 521.006 355.293 520.283 355.293C516.884 355.293 511.479 354.627 508.382 353.388C504.471 351.824 508.644 350.773 503.621 350.056C498.728 349.357 495.625 331.067 489.339 331.965C487.704 332.199 477.43 346.73 475.532 348.628Z" fill="#f9f2f2" fill-opacity="0.333" fill-rule="nonzero" opacity="1" stroke="none"/>
<path d="M575.508 443.366C566.756 452.119 556.969 456.192 547.896 465.266C544.644 468.518 539.751 469.602 536.946 472.407C537.184 472.883 537.184 472.883 537.422 473.359C531.854 478.927 525.819 482.612 520.283 489.069C517.356 492.485 515.162 496.957 511.714 499.543C508.513 501.944 508.381 508.113 504.097 509.541C504.097 512.428 495.164 528.471 492.671 530.964C492.195 530.488 492.195 530.488 491.719 530.012C487.559 534.172 491.965 544.048 487.434 548.579C486.958 548.103 486.958 548.103 486.482 547.627C481.988 552.121 485.847 560.322 485.53 566.67C485.071 575.849 484.886 594.943 485.53 604.279C485.825 608.554 485.235 612.859 485.53 617.133C485.591 618.025 487.449 618.408 487.91 618.562C487.91 628.681 498.173 639.386 503.621 646.65C505.774 649.521 509.092 649.733 510.286 653.315C512.639 653.315 511.741 652.866 513.142 654.267C512.428 654.981 512.428 654.981 511.714 655.695C514.397 658.378 520.161 657.233 521.712 661.884C536.19 661.884 548.639 664.855 563.606 662.36C568.38 661.565 573.379 664.126 576.46 659.504C574.999 658.043 572.902 656.822 571.699 655.219C570.167 653.176 576.17 653.13 576.936 652.363C575.189 650.615 552.325 650.764 547.896 649.983C542.09 648.958 536.796 637.931 533.613 634.748C533.137 635.224 533.137 635.224 532.661 635.7C530.98 634.019 532.397 633.744 531.233 631.416C530.405 629.76 526.911 629.546 526.472 628.083C520.65 608.676 522.33 584.435 524.568 564.289C525.125 559.275 524.613 555.456 525.996 550.959C526.26 550.101 527.695 549.929 527.901 549.055C529.36 542.852 526.09 541.406 531.709 539.533C531.709 537.788 531.077 535.923 531.709 534.297C532.279 532.832 534.444 532.417 535.042 530.964C536.498 527.427 534.259 524.401 538.85 522.871C538.85 519.091 541.759 517.928 542.659 514.777C543.024 513.501 541.966 506.467 545.515 510.017C551.031 504.501 553.929 496.842 559.321 491.45C561.107 489.664 563.704 490.586 564.558 488.593C565.818 485.653 568.853 481.29 572.652 480.024C572.652 477.197 574.887 475.629 577.412 474.787C577.412 472.518 583.025 470.794 584.553 469.074C591.37 461.406 599.543 456.542 607.881 450.984C609.859 449.665 612.698 449.499 614.546 447.651C614.07 446.937 614.07 446.937 613.594 446.223C614.07 445.747 614.07 445.747 614.546 445.271C614.07 444.795 613.791 443.868 613.118 443.842C601.225 443.385 589.313 443.688 577.412 443.842C577.058 443.847 576.778 444.16 576.46 444.318C575.984 443.842 575.984 443.842 575.508 443.366Z" fill="#e99203" fill-rule="nonzero" opacity="1" stroke="none"/>
<path d="M697.859 218.659C703.346 218.659 706.175 223.166 709.761 226.753C714.636 224.315 714.505 209.132 708.809 207.234C708.809 204.83 705.709 198.199 706.428 196.76C702.312 192.643 697.325 195.157 695.955 191.047C688.614 191.047 671.912 191.151 665.962 190.571C665.292 190.506 665.207 189.16 664.534 189.143C644.386 188.626 624.227 189.619 604.072 189.619C594.551 189.619 585.03 189.619 575.508 189.619C573.619 189.619 574.616 188.502 573.128 189.619C571.459 190.87 571.663 191.815 572.176 194.38C573.88 202.903 573.656 207.63 573.604 217.231C573.459 243.733 572.816 270.235 573.128 296.735C573.136 297.409 574.491 297.494 574.556 298.164C575.015 302.913 573.734 307.676 573.604 312.446C573.295 323.709 573.295 334.984 573.604 346.247C573.732 350.945 580.945 351.408 582.649 354.817C584.668 358.855 599.37 369.842 604.549 372.431C606.498 373.406 604.728 374.919 606.929 376.24C607.965 376.862 610.161 376.016 610.261 374.812C611.013 365.797 610.261 356.721 610.261 347.675C610.261 347.358 610.261 347.041 610.261 346.723C610.261 327.119 610.539 307.949 610.738 287.69C610.994 261.545 610.249 235.251 610.738 209.138C610.806 205.475 618.037 208.503 621.687 208.186C633.391 207.168 645.17 207.382 656.917 207.234C664.588 207.136 675.122 205.387 681.673 208.662C683.574 209.612 684.916 211.806 686.909 212.47C691.2 213.9 695.985 213.037 697.859 218.659Z" fill="#edb307" fill-rule="nonzero" opacity="1" stroke="none"/>
<path d="M482.197 351.008C476.246 356.96 467.675 361.9 462.678 368.147C459.926 371.587 458.243 375.939 455.537 379.096C454.067 380.811 446.747 386.204 445.54 388.618C438.692 402.312 456.019 426.698 443.635 439.082C442.921 438.606 442.921 438.606 442.207 438.13C439.351 440.986 441.619 446.084 440.303 450.031C435.658 450.031 439.445 453.631 436.018 454.316C433.818 454.756 430.94 453.681 429.353 455.268C429.829 455.744 429.829 455.744 430.305 456.22C426.629 459.896 422.103 456.329 418.404 460.029C422.244 463.869 428.846 458.093 432.686 461.933C430.557 466.19 437.441 464.79 439.351 464.79C448.08 464.79 456.826 464.665 465.535 465.266C466.207 465.312 466.487 466.218 466.963 466.694C472.155 464.098 477.326 454.67 481.245 453.364C481.245 450.945 483.555 450.174 484.578 448.127C485.362 446.559 483.635 445.267 483.626 444.318C483.312 413.693 484.094 383.06 483.626 352.436C483.615 351.763 482.674 351.484 482.197 351.008Z" fill="#edb307" fill-rule="nonzero" opacity="1" stroke="none"/>
<path d="M528.377 200.092C525.714 202.755 525.926 204.448 524.092 206.281C521.285 203.474 522.632 206.482 519.807 206.757C513.964 207.328 508.056 206.457 502.193 206.757C501.744 206.78 501.558 207.392 501.24 207.71C503.563 212.355 494.189 210.476 491.719 212.946C492.195 213.422 492.195 213.422 492.671 213.899C491.537 215.033 488.035 217.666 486.482 218.183C486.482 232.464 484.565 250.63 485.054 265.791C485.107 267.429 492.549 271.501 493.623 272.456C495.399 274.034 494.863 275.408 497.432 276.264C497.432 285.762 508.444 273.008 510.286 270.551C510.984 269.62 510.756 267.706 511.238 266.743C511.998 265.223 514.727 265.164 515.047 263.886C516.425 258.374 520.496 253.332 523.616 248.652C525.268 246.174 523.831 242.248 525.996 240.083C526.472 240.559 526.472 240.559 526.948 241.035C529.306 238.677 527.125 235.387 528.377 232.465C530.315 227.942 533.105 204.821 528.377 200.092Z" fill="#faf4f4" fill-opacity="0.333" fill-rule="nonzero" opacity="1" stroke="none"/>
<path d="M410.31 199.616C409.834 200.33 409.834 200.33 409.358 201.045C409.834 201.521 410.113 202.45 410.786 202.473C419.669 202.774 428.558 201.997 437.446 201.997C454.109 201.997 470.773 202.165 487.434 201.997C497.602 201.894 507.759 201.997 517.903 201.997C520.927 201.997 521.492 208.348 524.092 207.234C526.088 206.378 526.778 202.643 528.377 201.045C529.329 201.997 529.329 201.997 530.281 202.949C532.714 200.516 529.533 191.285 529.329 189.143C528.967 185.346 529.46 177.972 528.377 173.908C524.02 157.57 509.553 155.008 494.575 155.817C493.488 155.876 488.434 161.111 487.91 161.53C481.297 166.821 481.225 175.399 478.865 182.478C478.501 183.569 478.612 191.574 476.485 191.999C475.24 192.248 473.921 191.75 472.676 191.999C470.579 192.418 471.377 196.735 469.82 196.76C449.986 197.072 430.144 196.448 410.31 196.76C408.038 196.796 409.985 199.291 410.31 199.616Z" fill="#faf4f4" fill-opacity="0.333" fill-rule="nonzero" opacity="1" stroke="none"/>
<path d="M486.006 265.791C481.579 270.218 485.227 285.176 484.578 291.023C484.194 294.479 479.746 298.134 477.437 301.02C472.324 307.41 457.861 324.367 449.348 327.204C449.348 329.348 441.317 337.625 439.827 337.678C401.13 339.049 362.384 337.363 323.665 337.678C323.42 337.68 322.156 339.178 322.237 339.582C322.954 343.167 327.717 340.534 330.33 340.534C367.146 340.534 403.968 339.91 440.779 340.534C441.923 340.554 442.525 342.716 443.635 342.439C448.419 341.243 451.606 332.109 455.537 330.537C467.339 325.816 475.195 310.199 485.53 302.448C485.292 301.972 485.292 301.972 485.054 301.496C486.325 300.225 488.084 299.894 489.339 298.64C490.927 297.051 490.62 294.502 492.195 292.927C492.909 293.403 492.909 293.403 493.623 293.879C496.118 291.384 495.431 284.163 494.099 281.501C502.577 273.023 490.173 269.958 486.006 265.791Z" fill="#523307" fill-rule="nonzero" opacity="1" stroke="none"/>
<path d="M644.063 470.503C640.661 473.905 644.535 478.133 643.587 481.928C643.276 483.17 643.085 484.458 643.111 485.737C643.25 492.72 643.435 499.702 643.587 506.684C643.731 513.305 643.35 524.506 643.111 529.06C643.087 529.508 642.476 529.694 642.158 530.012C641.682 529.536 641.682 529.536 641.206 529.06C636.376 533.89 640.719 542.716 640.254 549.531C640.008 553.145 637.234 561.982 638.35 566.67C639.214 570.298 643.337 569.548 640.73 574.763C647.447 581.479 644.172 553.555 646.443 550.959C650.051 546.836 648.935 540.239 649.3 534.773C649.366 533.771 650.243 532.92 650.252 531.916C650.405 513.667 650.884 495.417 650.728 477.168C650.707 474.768 647.781 477.258 647.395 477.644C645.301 475.55 646.603 473.043 644.063 470.503Z" fill="#dac453" fill-rule="nonzero" opacity="1" stroke="none"/>
<path d="M627.4 297.212C629.495 299.306 628.26 298.931 629.304 301.02C630.553 303.517 636.086 302.169 636.446 308.161C636.892 315.606 636.598 323.08 636.446 330.537C636.402 332.65 632.737 336.625 631.685 337.678C629.234 335.228 626.073 336.076 625.02 332.917C621.37 332.917 617.681 332.382 614.07 332.917C609.63 333.575 612 341.762 612.166 346.247C612.311 350.161 617.982 349.683 619.783 351.484C621.815 349.452 625.513 350.98 628.352 350.532C631.968 349.961 634.054 346.255 636.922 344.343C635.323 341.146 642.508 336.461 642.634 332.917C642.94 324.353 642.94 315.773 642.634 307.209C642.517 303.93 637.538 294.901 634.541 293.403C631.792 292.028 629.238 295.986 627.4 297.212Z" fill="#dac453" fill-rule="nonzero" opacity="1" stroke="none"/>
<path d="M572.176 189.619C568.135 193.659 571.433 203.207 571.223 208.662C571.077 212.471 570.747 216.276 570.747 220.088C570.747 224.375 571.223 228.654 571.223 232.942C571.223 256.428 571.361 279.922 570.747 303.401C570.614 308.487 565.183 303.432 564.082 306.733C562.592 311.202 565.913 309.496 566.463 311.97C567.208 315.323 565.915 316.112 567.415 319.111C569.25 317.275 567.483 315.234 569.319 313.398C569.795 313.715 570.722 313.779 570.747 314.35C571.209 324.814 571.055 335.302 570.747 345.771C570.718 346.77 568.097 346.994 567.415 347.675C569.112 349.373 573.977 353.401 575.984 350.056C576.868 348.582 574.579 347.086 574.556 346.247C574.247 334.984 574.247 323.709 574.556 312.446C574.695 307.36 575.969 302.279 575.508 297.212C575.447 296.541 574.092 296.456 574.08 295.783C573.612 269.762 573.936 243.732 574.08 217.707C574.144 206.108 575.185 204.664 573.128 194.38C572.81 192.793 573.32 190.763 572.176 189.619Z" fill="#764906" fill-rule="nonzero" opacity="1" stroke="none"/>
<path d="M638.35 559.052C634.274 563.128 638.024 573.761 632.161 575.715C632.161 579.397 632.699 582.518 628.828 583.808C628.828 589.355 625.683 601.995 620.259 603.803C620.259 607.256 611.406 624.369 607.405 625.703C607.405 627.958 604.715 629.345 603.12 630.94C614.085 641.904 614.804 620.856 623.115 618.086C623.115 610.456 632.478 603.447 635.493 596.662C636.269 594.916 635.316 592.745 635.969 590.949C636.417 589.717 638.675 589.033 639.302 588.093C639.566 587.697 639.278 587.14 639.302 586.665C639.571 581.288 642.931 574.461 642.158 569.05C641.983 567.823 639.53 567.888 639.302 566.67C638.83 564.155 640.159 560.862 638.35 559.052Z" fill="#bca82f" fill-rule="nonzero" opacity="1" stroke="none"/>
<path d="M642.158 540.009C642.793 539.375 644.002 539.001 644.063 538.105C644.653 529.397 644.063 520.649 644.063 511.921C644.063 509.587 643.938 504.905 645.491 503.352C645.845 503.706 648.264 505.604 648.347 503.352C648.653 495.105 647.626 486.816 648.347 478.596C648.445 477.478 650.456 477.304 650.728 476.215C652.526 469.023 647.972 461.907 647.395 455.268C647.078 451.618 649.034 446.909 646.443 444.318C645.967 444.795 645.967 444.795 645.491 445.271C634.459 436.997 639.802 457.888 640.254 462.409C642.465 484.518 641.206 506.841 641.206 529.06C641.206 532.896 639.297 537.148 642.158 540.009Z" fill="#bca82f" fill-rule="nonzero" opacity="1" stroke="none"/>
<path d="M558.369 315.302C558.369 318.757 551.337 331.365 547.42 329.585C544.964 328.469 533.654 313.317 530.281 320.063C527.824 324.977 543.282 332.662 544.563 335.774C547.001 341.693 538.099 346.448 544.087 352.436C548.231 350.364 551.636 340.738 556.941 343.391C561.653 338.679 557.912 341.428 556.465 336.726C555.723 334.313 558.608 326.648 561.226 325.776C561.226 323.618 563.308 323.019 565.034 322.443C565.034 321.364 571.808 306.156 564.082 309.589C561.396 310.783 561.731 314.182 558.369 315.302Z" fill="#b27a1a" fill-rule="nonzero" opacity="1" stroke="none"/>
<path d="M668.342 422.895C665.193 419.745 659.465 422.087 655.012 421.943C651.514 421.83 650.138 418.736 646.443 418.61C637.401 418.304 628.342 418.594 619.307 418.134C617.668 418.051 620.964 408.365 618.831 406.233C618.355 406.471 618.355 406.471 617.879 406.709C615.381 404.211 614.99 400.413 611.69 397.663C610.836 396.952 609.324 398.947 609.309 399.091C608.885 403.195 609.309 407.343 609.309 411.469C609.309 413.014 608.614 419.05 609.785 420.515C612.665 424.114 620.963 422.611 625.496 423.847C636.032 426.721 650.184 426.861 661.677 425.276C663.066 425.084 667.145 424.093 668.342 422.895Z" fill="#764906" fill-rule="nonzero" opacity="1" stroke="none"/>
<path d="M496.48 437.177C494.078 439.579 495.899 441.497 491.719 442.89C491.719 447.164 486.982 455.26 482.674 456.696C482.674 466.602 463.206 473.784 457.442 479.548C459.285 481.392 463.758 486.14 466.963 484.309C471.399 481.774 482.556 472.494 485.054 468.122C485.859 466.714 486.156 463.943 487.434 462.409C490.089 459.223 492.76 457.471 494.575 453.84C496.379 450.233 503.549 446.555 500.764 440.986C499.685 438.828 497.732 439.056 496.48 437.177Z" fill="#b27a1a" fill-rule="nonzero" opacity="1" stroke="none"/>
<path d="M565.51 347.675C555.594 350.981 583.126 365.768 584.553 370.051C586.945 370.051 588.178 373.095 591.218 371.955C591.656 371.791 592.546 369.825 593.599 370.527C595.308 371.667 603.542 381.266 605.025 380.525C609.777 378.148 607.886 377.201 606.453 374.336C605.833 373.097 607.34 372.092 605.501 371.479C595.422 368.12 586.023 354.966 576.936 348.151C576.773 348.029 572.392 351.701 565.51 347.675Z" fill="#916116" fill-rule="nonzero" opacity="1" stroke="none"/>
<path d="M582.649 648.078C580.907 648.078 566.007 651.39 565.987 651.411C567.55 652.974 568.534 652.054 570.271 653.791C565.423 658.639 556.552 650.847 551.704 655.695C556.31 660.302 564.711 656.493 571.223 656.648C573.105 656.692 573.664 658.527 575.032 659.504C575.29 659.689 575.7 659.646 575.984 659.504C578.767 658.113 579.782 657.867 583.125 657.124C584.199 656.885 585.25 653.803 585.982 653.315C587.814 652.094 590.417 653.164 592.171 651.411C591.695 650.935 591.695 650.935 591.218 650.459C593.777 647.9 597.297 645.259 600.264 644.27C602.657 643.472 606.196 636.982 608.833 635.224C604.121 625.8 595.967 638.09 590.742 642.365C588.008 644.602 583.677 644.995 582.649 648.078Z" fill="#b27a1a" fill-rule="nonzero" opacity="1" stroke="none"/>
<path d="M633.113 155.817C635.992 158.696 636.939 155.416 640.73 156.77C644.933 158.271 643.779 159.696 648.347 159.626C658.028 159.477 667.735 159.893 677.388 159.15C678.283 159.081 678.399 157.331 679.292 157.246C685.295 156.674 691.353 157.246 697.383 157.246C699.466 157.246 701.069 157.845 702.62 156.294C700.253 153.926 695.92 155.915 692.622 155.341C691.738 155.188 691.601 153.598 690.718 153.437C687.58 152.867 684.385 152.577 681.197 152.485C670.569 152.177 659.927 152.177 649.3 152.485C648.851 152.498 648.773 153.295 648.347 153.437C644.236 154.808 635.865 153.066 633.113 155.817Z" fill="#dac453" fill-rule="nonzero" opacity="1" stroke="none"/>
<path d="M579.793 370.051C577.219 372.624 597.586 387.07 599.788 391.474C600.464 392.826 606.13 398.513 607.405 397.663C613.671 393.486 600.192 383.273 597.407 379.096C599.024 377.48 600.551 378.809 602.168 377.192C599.97 373.895 596.275 370.913 592.647 369.099C591.43 370.316 580.36 370.618 579.793 370.051Z" fill="#764906" fill-rule="nonzero" opacity="1" stroke="none"/>
<path d="M486.006 154.865C482.608 153.733 476.671 165.927 483.626 170.1C484.66 169.065 483.78 167.042 484.578 165.815C487.027 162.047 490.088 157.006 494.575 156.77C500.447 156.461 508.032 159.975 512.19 155.817C509.715 153.342 507.341 151.744 506.001 147.724C498.19 147.724 490.874 148.375 486.006 154.865Z" fill="#b27a1a" fill-rule="nonzero" opacity="1" stroke="none"/>
<path d="M416.499 465.742C418.103 467.345 420.809 468.122 423.164 468.122C428.403 468.122 433.638 467.796 438.875 467.646C443.714 467.508 464.056 469.125 466.963 466.218C466.487 465.583 466.326 464.369 465.535 464.314C456.987 463.714 448.396 464.314 439.827 464.314C437.356 464.314 435.024 464.748 433.162 462.885C433.4 462.409 433.4 462.409 433.638 461.933C430.13 458.426 423.815 459.535 418.88 460.029C416.999 460.217 417.235 464.27 416.499 465.742Z" fill="#bca82f" fill-rule="nonzero" opacity="1" stroke="none"/>
<path d="M708.809 190.095C706.404 192.5 709.101 194.563 706.905 196.76C706.428 196.522 706.428 196.522 705.952 196.284C705.476 196.76 705.476 196.76 705 197.236C707 201.236 708.209 212.823 708.809 213.422C709.523 212.708 709.523 212.708 710.237 211.994C713.174 214.931 711.996 220.232 711.665 224.372C711.627 224.85 709.406 226.196 709.285 226.276C712.053 229.044 713.522 226.705 715.95 229.133C720.332 224.751 717.037 216.762 716.902 210.566C716.84 207.694 711.21 192.496 708.809 190.095Z" fill="#764906" fill-rule="nonzero" opacity="1" stroke="none"/>
<path d="M479.341 162.006C474.192 163.878 472.839 176.197 472.2 181.525C471.875 184.231 469.342 195.548 476.485 192.951C481.769 191.03 485.717 159.689 479.341 162.006Z" fill="#957b2f" fill-rule="nonzero" opacity="1" stroke="none"/>
<path d="M496.48 460.029C486.264 469.932 497.805 467.646 505.525 467.646C509.89 467.646 514.984 468.733 519.331 467.646C521.598 467.079 523.178 460.124 520.759 460.029C512.99 459.724 505.208 460.029 497.432 460.029C497.114 460.029 496.708 459.808 496.48 460.029Z" fill="#b27a1a" fill-rule="nonzero" opacity="1" stroke="none"/>
<path d="M625.496 204.853C626.704 206.061 625.977 205.783 627.4 205.805C637.239 205.959 647.077 206.281 656.917 206.281C662.966 206.281 670.73 209.13 675.008 204.853C673.198 203.044 669.888 204.456 667.39 203.901C666.514 203.706 666.364 202.182 665.486 201.997C657.05 200.221 644.967 199.816 636.446 201.521C635.952 201.619 634.687 203.836 633.589 203.901C630.877 204.06 627.417 202.932 625.496 204.853Z" fill="#764906" fill-rule="nonzero" opacity="1" stroke="none"/>
<path d="M614.07 285.31C611.405 287.975 615.557 291.651 618.355 292.451C624.993 294.347 629.037 299.859 635.493 293.403C631.563 289.472 625.053 289.152 614.07 285.31Z" fill="#bca82f" fill-rule="nonzero" opacity="1" stroke="none"/>
<path d="M632.161 163.911C638.934 163.911 645.57 162.53 652.632 162.006C653.08 161.973 653.267 161.372 653.584 161.054C651.997 159.467 649.12 160.542 646.919 160.102C641.099 158.938 637.21 151.908 633.589 159.15C632.158 162.012 631.094 160.709 632.161 163.911Z" fill="#bca82f" fill-rule="nonzero" opacity="1" stroke="none"/>
<path d="M571.223 365.766C572.086 367.491 571.706 369.105 573.128 370.527C578.084 368.049 579.871 373.49 585.03 370.051C584.395 368.781 584.395 369.416 585.03 368.147C583.423 366.54 581.984 365.068 579.793 364.338C580.269 363.862 580.269 363.862 580.745 363.386C574.428 357.069 574.876 362.114 571.223 365.766Z" fill="#523307" fill-rule="nonzero" opacity="1" stroke="none"/>
</g>
</g>
</svg>
